<?xml version="1.0" standalone="no"?>
<!DOCTYPE svg PUBLIC "-//W3C//DTD SVG 20010904//EN"
 "http://www.w3.org/TR/2001/REC-SVG-20010904/DTD/svg10.dtd">
<svg version="1.0" xmlns="http://www.w3.org/2000/svg"
 width="973.000000pt" height="1280.000000pt" viewBox="0 0 973.000000 1280.000000"
 preserveAspectRatio="xMidYMid meet">
<g transform="translate(0.000000,1280.000000) scale(0.100000,-0.100000)"
fill="#000000" stroke="none">
<path d="M4630 12789 c-47 -5 -151 -16 -232 -24 -356 -37 -616 -106 -888 -237
-320 -153 -548 -350 -741 -642 -252 -379 -391 -867 -449 -1571 -18 -217 -24
-752 -11 -920 78 -991 517 -1858 1201 -2374 394 -297 820 -452 1285 -468 363
-12 693 60 1030 226 267 132 452 266 675 491 533 537 853 1275 921 2125 13
167 7 701 -11 920 -67 819 -253 1369 -599 1772 -307 356 -788 590 -1376 667
-285 37 -641 53 -805 35z"/>
<path d="M3165 6235 c-324 -66 -440 -93 -680 -157 -1092 -290 -1695 -692
-2033 -1355 -264 -518 -386 -1188 -422 -2328 -6 -181 -15 -413 -20 -515 -15
-271 -13 -426 4 -447 8 -10 35 -45 59 -78 25 -33 77 -92 116 -132 667 -677
2066 -1108 3871 -1193 124 -6 306 -15 405 -20 230 -13 570 -13 800 0 99 5 281
14 405 20 1747 82 3108 486 3805 1129 81 75 169 174 216 243 38 55 39 60 39
140 0 46 -4 182 -10 303 -5 121 -14 369 -20 550 -20 618 -62 1067 -136 1450
-205 1062 -671 1630 -1654 2018 -388 153 -886 287 -1467 396 l-156 29 -72 -65
c-264 -238 -603 -390 -1010 -449 -166 -25 -514 -25 -680 0 -407 60 -746 210
-1011 450 -40 36 -76 66 -81 65 -4 0 -125 -24 -268 -54z"/>
</g>
</svg>
